# xmcd
#
# Track frame offsets:
#	150
#	19119
#	36591
#	55606
#	74450
#	94078
#	110250
#	130241
#	147170
#	166471
#	183427
#	200501
#	218084
#	235285
#	253547
#	269528
#
# Disc length: 3916 seconds
# Revision: 0
# Processed by: cddbd v1.5.2PL0 Copyright (c) Steve Scherf et al.
# Submitted via: dBpowerAMP V12.0
#
DISCID=ec0f4a10
DTITLE=รวมศิลปิน - รวมฮิตมนต์รักปักใต้
DYEAR=2014
DGENRE=Country
TTITLE0=ฝากคำถามไว้กับดาว
TTITLE1=ความเหงาไม่เข้าใครออกใคร
TTITLE2=ที่หนึ่งคนสุดท้าย
TTITLE3=ทั้งหมดนั้นคือฉันรักเธอ
TTITLE4=อยาหมานั่งคุยกันหน่อยไหม
TTITLE5=ขอเรียกเธอว่าแฟน
TTITLE6=จากใต๊ะข้างด้วยความหวังดี
TTITLE7=ขอแค่แลดู
TTITLE8=หูหนวก ตาบอด
TTITLE9=อยู่ในสายตาแต่นอกหัวใจ
TTITLE10=ฉันเป็นแฟนเธอแล้ว เธอเป็นแฟนใคร
TTITLE11=พรุ้งนี้จะมาอีกไหม
TTITLE12=ขนมลาคนลืม
TTITLE13=อยากฉุดฟ้าคว้าดาว
TTITLE14=ไม่เจ็บไม่มาไม่ว่าพรือ
TTITLE15=คำว่าจบลบทุกอย่างไม่ได้
EXTD=
EXTT0=
EXTT1=
EXTT2=
EXTT3=
EXTT4=
EXTT5=
EXTT6=
EXTT7=
EXTT8=
EXTT9=
EXTT10=
EXTT11=
EXTT12=
EXTT13=
EXTT14=
EXTT15=
PLAYORDER=
